<svg xmlns="http://www.w3.org/2000/svg" viewBox="0 0 512 512" role="img" aria-labelledby="title">
  <title>Yoco</title>
  <rect x="28" y="28" width="456" height="456" rx="108" fill="#ffffff" stroke="#e5eef5" stroke-width="2"/>
  <g transform="translate(64 209.6) scale(0.2576909387)">
    <path fill="#00a9e0" d="M139.07,248.27L0,12.43h133.02l65.82,119.97h4.16L269.31,12.33h130.24l-139.07,235.94v99.04h-121.54l.13-99.04Z"/>
    <path fill="#00a9e0" d="M767.56,180.83c0-111.95,77.4-177.97,191.9-177.97,56.1,0,95.47,13.86,126.53,32.05v112.9h-.93c-37.99-26.41-70.91-41.63-111.69-41.63-49.13,0-84.34,26.41-84.34,73.68s36.14,73.19,83.86,73.19c42.19,0,76.03-14.82,112.17-42.09h.93v114.32c-25.59,15.32-70.36,31.56-127.45,31.56-118.24.03-190.97-64.08-190.97-176.02Z"/>
    <path fill="#00a9e0" d="M1106.35,179.88c0-111.94,74.14-179.88,191.91-179.88s191.9,67.94,191.9,179.88-74.14,179.85-191.9,179.85-191.91-67.91-191.91-179.85ZM1371.82,179.88c0-49.29-27.8-77.51-73.56-77.51s-73.21,28.23-73.21,77.51,27.34,77.48,73.21,77.48,73.66-28.23,73.66-77.48h-.09Z"/>
    <path fill="#00a9e0" d="M364.35,179.88C364.35,67.94,438.49,0,556.25,0s191.91,67.94,191.91,179.88-74.18,179.85-191.91,179.85-191.9-67.91-191.9-179.85ZM629.81,179.88c0-49.29-27.83-77.51-73.56-77.51s-73.24,28.23-73.24,77.51,27.35,77.48,73.24,77.48,73.66-28.23,73.66-77.48h-.1Z"/>
  </g>
</svg>
